PathFileType  4	(X/Y/Z) C:\Users\antoi\Documents\MyRepositories\mobilecap\ResultsAnalysis
DataRate	CameraRate	NumFrames	NumMarkers	Units	OrigDataRate	OrigDataStartFrame	OrigNumFrames
100.0	100.0	7	51	mm	100.0	34	132
Frame#	Time	r_knee			r_shank_antsup			r_ankle			r_calc			r_5meta			r_toe			L_knee			L_shank_antsup			L_ankle			L_calc			L_5meta			L_toe			r_sh2			r_sh3			r_sh4			L_sh2			L_sh3			r_thigh1			r_thigh2			r_thigh3			r_thigh4			r_thigh5			L_thigh1			L_thigh2			L_thigh3			L_thigh4			r.ASIS			r.PSIS			L.ASIS			L.PSIS			C7			R_Shoulder			L_Shoulder			R_Sternum			L_Sternum			R_humerus			R_elbow_med			R_elbow_lat			R_forearm			R_wrist_radius			R_wrist_ulna			L_humerus			L_elbow_med			L_elbow_lat			L_forearm			L_wrist_radius			L_wrist_ulna			R_HJC			L_HJC			R_HJC_reg			L_HJC_reg			
		X1	Y1	Z1	X2	Y2	Z2	X3	Y3	Z3	X4	Y4	Z4	X5	Y5	Z5	X6	Y6	Z6	X7	Y7	Z7	X8	Y8	Z8	X9	Y9	Z9	X10	Y10	Z10	X11	Y11	Z11	X12	Y12	Z12	X13	Y13	Z13	X14	Y14	Z14	X15	Y15	Z15	X16	Y16	Z16	X17	Y17	Z17	X18	Y18	Z18	X19	Y19	Z19	X20	Y20	Z20	X21	Y21	Z21	X22	Y22	Z22	X23	Y23	Z23	X24	Y24	Z24	X25	Y25	Z25	X26	Y26	Z26	X27	Y27	Z27	X28	Y28	Z28	X29	Y29	Z29	X30	Y30	Z30	X31	Y31	Z31	X32	Y32	Z32	X33	Y33	Z33	X34	Y34	Z34	X35	Y35	Z35	X36	Y36	Z36	X37	Y37	Z37	X38	Y38	Z38	X39	Y39	Z39	X40	Y40	Z40	X41	Y41	Z41	X42	Y42	Z42	X43	Y43	Z43	X44	Y44	Z44	X45	Y45	Z45	X46	Y46	Z46	X47	Y47	Z47	X48	Y48	Z48	X49	Y49	Z49	X50	Y50	Z50	X51	Y51	Z51	

34	0.33000000	204.71269	495.45008	-114.38594	233.17036	396.50886	-128.12750	130.36359	90.37401	-177.57321	73.28788	60.12611	-235.18182	244.78900	42.81304	-130.40732	283.95431	71.62854	-183.27921	402.98789	535.99157	-366.48333	424.38492	441.73807	-351.96111	250.30628	153.33669	-360.49090	166.97987	133.27629	-312.61648	330.42587	62.01833	-394.76298	384.01486	76.40645	-339.80589	216.34906	285.87750	-143.96826	167.29346	400.61001	-91.27013	142.72753	288.58955	-103.17553	355.57715	481.63150	-395.99932	308.88041	370.19289	-406.57907	256.18622	774.94255	-69.34770	265.61620	666.04560	-91.78840	211.76163	633.08618	-63.91626	143.71389	759.65410	-52.60171	158.21553	648.35540	-80.18861	359.72346	787.03213	-382.79020	431.63785	669.68592	-354.50630	277.00547	727.71563	-425.71198	342.43890	616.48254	-389.77851	281.96505	972.21347	-105.68778	78.92475	1001.12131	-200.19646	295.45038	972.31844	-358.25235	88.46079	995.84296	-294.16859	112.16978	1459.27227	-228.72794	177.19392	1429.82913	-65.39327	191.27944	1435.33542	-382.78374	239.44538	1390.39243	-204.03492	237.99118	1392.96638	-250.30334	230.27607	1305.70391	-15.22536	179.26900	1093.02048	-48.98053	188.16332	1105.24644	17.20783	257.73166	1057.09766	37.05724	349.43966	913.17756	8.73806	314.69033	904.17006	46.00988	212.55189	1295.91837	-449.55820	128.85580	1102.95150	-401.08955	144.29570	1114.31540	-479.69939	184.52628	1052.07603	-497.95823	193.93837	871.57243	-492.56365	165.09673	887.06602	-530.49579	202.24204	883.21035	-135.76151	215.59213	882.84060	-324.85222	207.21032	900.88641	-144.85849	224.03976	891.57356	-310.67700	
35	0.34000000	208.73730	495.09986	-113.82615	236.03933	395.97457	-127.56491	130.67499	90.55815	-177.57002	73.32747	60.39446	-235.13685	244.82386	42.70429	-130.32019	284.26767	71.59910	-183.10494	416.93573	536.54584	-365.08875	443.32709	444.09582	-350.53364	289.00287	144.96872	-358.27240	207.04713	120.19289	-309.98061	374.18072	58.24187	-392.44187	427.29182	75.70097	-337.71224	218.14089	285.51241	-143.54008	170.11453	400.66740	-90.84117	144.54914	288.90170	-102.84400	371.75468	479.00943	-394.78387	333.04557	364.76046	-404.90624	264.39736	774.06994	-68.60091	272.39294	665.07641	-91.14436	218.05919	632.84124	-63.39054	151.78312	760.28129	-52.03300	164.64249	648.63036	-79.60641	372.23278	787.32688	-381.57451	444.47900	670.21936	-353.10592	289.97537	727.78577	-424.88447	355.58618	616.73641	-388.74155	292.28297	971.52656	-104.09181	90.02772	1000.67483	-200.61996	307.66380	971.97571	-356.79324	100.24798	995.32089	-294.31096	124.48729	1458.95465	-227.87148	189.49566	1429.44414	-64.50887	203.41552	1434.59965	-382.03109	251.59054	1389.78558	-203.13125	250.17856	1392.35594	-249.39305	243.35540	1305.84813	-14.32096	194.59783	1092.50658	-47.06313	203.68998	1104.97958	18.96885	274.31552	1058.18629	38.56442	369.32798	916.57508	9.79180	334.79483	906.67702	47.02925	222.62382	1295.08624	-449.25125	136.61985	1102.94434	-401.24448	151.22034	1114.64859	-479.88464	190.36430	1052.00144	-499.03402	197.60848	871.40957	-494.96235	168.53301	887.69211	-532.22203	212.72904	882.60462	-135.11527	227.64255	882.42375	-324.08944	217.68645	900.50130	-143.81639	235.78083	891.02682	-309.65582	
36	0.35000000	212.73676	494.66163	-113.30817	238.88691	395.39105	-127.05668	130.98840	90.74082	-177.59281	73.35585	60.63176	-235.12283	244.84666	42.61009	-130.24010	284.51582	71.55013	-182.95086	430.11573	536.20312	-363.88865	461.43776	446.01614	-349.19228	327.90747	137.50496	-356.01605	247.49907	108.25815	-307.44668	417.86421	55.44660	-389.76938	470.04183	75.90490	-335.19555	219.92196	285.11863	-143.16683	172.92697	400.66839	-90.44292	146.36365	289.17390	-102.54243	387.48254	475.72928	-393.67453	357.01107	359.13503	-403.27010	272.72391	773.08112	-67.93189	279.22422	663.99714	-90.59391	224.49667	632.50581	-62.90575	159.99911	760.76627	-51.40079	171.15655	648.83217	-79.00325	384.52857	786.84534	-380.28182	456.79159	669.73856	-351.79121	302.59774	727.33758	-424.18681	368.09367	616.25390	-387.98090	302.60406	970.61980	-102.46702	101.22252	1000.02493	-201.15648	319.89226	971.32829	-355.36634	112.13401	994.61259	-294.56079	136.79757	1458.36791	-227.07863	201.74626	1428.71672	-63.64347	215.68991	1433.57322	-381.27912	263.76832	1388.85364	-202.22703	262.43226	1391.43175	-248.48604	256.31924	1305.65124	-13.43159	209.93298	1091.65716	-45.20186	219.20309	1104.43336	20.67098	290.81921	1058.97493	39.98740	388.99413	919.70374	10.76516	354.73392	908.92837	47.96580	232.73972	1294.00615	-448.94969	144.47576	1102.70629	-401.39374	158.23952	1114.77583	-480.05811	196.35156	1051.75438	-500.05342	201.77841	871.21448	-497.18918	172.27067	888.16340	-533.82204	223.19931	881.79397	-134.49854	239.73088	881.74295	-323.33797	228.16434	899.82100	-142.77852	247.54877	890.21125	-308.67863	
37	0.36000000	216.69719	494.14787	-112.82964	241.68573	394.75711	-126.57932	131.29146	90.91871	-177.65106	73.39859	60.82731	-235.14422	244.85450	42.52884	-130.16115	284.67937	71.46526	-182.81807	442.63115	535.01717	-362.88654	478.77474	447.54772	-347.95179	366.76428	131.07162	-353.70635	288.04985	97.59278	-304.98497	461.28842	53.79334	-386.67900	512.08884	77.28476	-332.20866	221.67045	284.69573	-142.82627	175.69496	400.61998	-90.07597	148.12410	289.41109	-102.28087	402.89141	471.93649	-392.70370	380.73162	353.48764	-401.71273	281.16441	771.95747	-67.31616	286.10432	662.79415	-90.10812	231.03791	632.07118	-62.45297	168.34650	761.11528	-50.67531	177.74216	648.98174	-78.37741	396.63706	785.59698	-378.90357	468.63341	668.28473	-350.52832	314.95695	726.36326	-423.65802	380.06589	615.04564	-387.49372	312.95962	969.51576	-100.83396	112.52461	999.16319	-201.80040	332.15122	970.42327	-353.95768	124.12942	993.67884	-294.91417	149.09528	1457.51118	-226.36485	213.93376	1427.65999	-62.81284	228.10389	1432.27381	-380.53255	275.96764	1387.60468	-201.33068	274.75618	1390.20095	-247.58903	269.17064	1305.13573	-12.55401	225.27716	1090.49717	-43.42001	234.71136	1103.63246	22.29600	307.24569	1059.48894	41.31039	408.43502	922.55402	11.63818	374.50347	910.94263	48.80924	242.94751	1292.70574	-448.65174	152.44321	1102.27392	-401.51846	165.37191	1114.71333	-480.21324	202.51426	1051.34327	-501.00616	206.40530	870.96254	-499.23068	176.22844	888.41546	-535.29205	233.70405	880.78553	-133.91479	251.89988	880.81444	-322.60065	238.67397	898.91823	-141.73240	259.36266	889.14612	-307.70748	
38	0.37000000	220.63183	493.57602	-112.39479	244.43254	394.07466	-126.12081	131.57696	91.09452	-177.75485	73.47562	60.98308	-235.20018	244.84795	42.45823	-130.07657	284.76759	71.34310	-182.70041	454.61369	533.08147	-362.07120	495.39964	448.74415	-346.81612	405.29544	125.73758	-351.32859	328.40780	88.24586	-302.52346	504.19031	53.41428	-383.17266	553.21167	80.04385	-328.78648	223.38313	284.24093	-142.50509	178.41099	400.53288	-89.74624	149.81561	289.62218	-102.06712	418.08037	467.79243	-391.88786	404.12938	347.99045	-400.26026	289.70950	770.68014	-66.72317	293.03096	661.45581	-89.66185	237.64535	631.52963	-62.02732	176.82163	761.33427	-49.84839	184.39508	649.08846	-77.73347	408.58756	783.61969	-377.43831	480.07155	665.94139	-349.27462	327.14657	724.88023	-423.32123	391.62261	613.15367	-387.24321	323.38207	968.24067	-99.22646	123.94252	998.07328	-202.54684	344.47992	969.28519	-352.55776	136.24045	992.46894	-295.36273	161.39760	1456.37467	-225.73498	226.05418	1426.28899	-62.02817	240.65244	1430.71489	-379.80101	288.18068	1386.04906	-200.45060	287.15480	1388.67259	-246.70983	281.92560	1304.32200	-11.68959	240.62083	1089.06043	-41.74220	250.20270	1102.59185	23.82622	323.60390	1059.75435	42.52123	427.64304	925.11312	12.39317	394.10340	912.73769	49.55208	253.29768	1291.20260	-448.35409	160.55147	1101.67268	-401.60622	172.63821	1114.47162	-480.34588	208.88481	1050.77060	-501.88920	211.41747	870.60888	-501.09610	180.32731	888.37951	-536.63287	244.29792	879.58575	-133.36165	264.19595	879.63792	-321.87472	249.25428	897.85992	-140.67684	271.25514	887.83786	-306.70951	
39	0.38000000	224.57940	492.96457	-112.01226	247.15232	393.34850	-125.68628	131.84574	91.27874	-177.91225	73.59772	61.11297	-235.28785	244.83299	42.39657	-129.98114	284.81402	71.19263	-182.58660	466.20455	530.52130	-361.41010	511.36085	449.65243	-345.77346	443.20700	121.52249	-348.88006	368.28350	80.19656	-299.98957	546.24131	54.40339	-379.33532	593.14211	84.27920	-325.04432	225.08156	283.75236	-142.20486	181.10500	400.41990	-89.46422	151.46566	289.81800	-101.90639	433.09553	463.44770	-391.21260	427.09851	342.79162	-398.91426	298.34989	769.23414	-66.12351	300.00963	659.97378	-89.23793	244.29042	630.87647	-61.62799	185.42642	761.42774	-48.93574	191.12937	649.14734	-77.08865	420.41251	780.98911	-375.89236	491.18529	662.83625	-347.98634	339.25418	722.93366	-423.16858	402.88678	610.65642	-387.15759	333.90319	966.82055	-97.68295	135.47989	996.73907	-203.39154	356.92698	967.91381	-351.16901	148.46931	990.93418	-295.89519	173.73423	1454.94543	-225.18517	238.11271	1424.62025	-61.29617	253.32537	1428.90647	-379.09823	300.40311	1384.19963	-199.59470	299.63110	1386.85788	-245.85828	294.60640	1303.22651	-10.84585	255.94649	1087.38445	-40.19087	265.64761	1101.31576	25.24512	339.89927	1059.79079	43.61257	446.60250	927.36914	13.01961	413.52786	914.32395	50.19097	263.83441	1289.50240	-448.05398	168.83554	1100.91444	-401.65622	180.07263	1114.05355	-480.45462	215.50452	1050.03287	-502.70544	216.74806	870.10311	-502.80892	184.55138	888.01772	-537.84696	255.03015	878.20189	-132.83254	276.65709	878.19953	-321.15396	259.94474	896.69736	-139.61928	283.26175	886.27928	-305.66463	
40	0.39000000	228.59725	492.32893	-111.69030	249.89706	392.58485	-125.29714	132.10732	91.48853	-178.12668	73.76477	61.24049	-235.40445	244.82043	42.34327	-129.87305	284.86541	71.02460	-182.46564	477.52944	527.48025	-360.84582	526.68637	450.30422	-344.79846	480.19081	118.40882	-346.38189	407.38877	73.37473	-297.35422	587.07165	56.80097	-375.32769	631.58388	89.95992	-321.15602	226.81214	283.23240	-141.94245	183.84237	400.29386	-89.24256	153.13889	290.00911	-101.80273	447.92023	459.01966	-390.62694	449.51382	337.99139	-397.64761	307.08503	767.61329	-65.49906	307.05851	658.34574	-88.82750	250.96366	630.11118	-61.25590	194.16449	761.39891	-47.97528	197.97819	649.14294	-76.47449	432.14623	777.82229	-374.28053	502.06686	659.13712	-346.62698	351.34768	720.59317	-423.15259	413.97175	607.66844	-387.13628	344.55360	965.27587	-96.23843	147.13734	995.15314	-204.33008	369.52793	966.29460	-349.80945	160.81635	989.04109	-296.50039	186.13142	1453.21774	-224.70939	250.12319	1422.67221	-60.61976	266.10849	1426.85816	-378.44019	312.63450	1382.07339	-198.77023	312.18388	1384.77225	-245.04536	307.23700	1301.86204	-10.03608	271.23206	1085.50292	-38.78274	281.00990	1099.80384	26.53862	356.12156	1059.60574	44.58199	465.29002	929.31354	13.51598	432.75229	915.69806	50.72802	274.58902	1287.60160	-447.75148	177.33296	1099.99762	-401.68001	187.73095	1113.45245	-480.54026	222.42198	1049.12213	-503.46207	222.35816	869.40308	-504.39561	188.98460	887.34480	-538.93799	265.93759	876.64219	-132.32238	289.30198	876.48191	-320.43496	270.77323	895.46383	-138.57449	295.40937	884.45577	-304.57080	
